<?xml version="1.0" encoding="UTF-8" standalone="no"?><!DOCTYPE svg PUBLIC "-//W3C//DTD SVG 1.1//EN" "http://www.w3.org/Graphics/SVG/1.1/DTD/svg11.dtd"><svg width="100%" height="100%" viewBox="0 0 182 98" version="1.1" xmlns="http://www.w3.org/2000/svg" xmlns:xlink="http://www.w3.org/1999/xlink" xml:space="preserve" xmlns:serif="http://www.serif.com/" style="fill-rule:evenodd;clip-rule:evenodd;stroke-linejoin:round;stroke-miterlimit:2;"><g><path id="path41-2-6-7" d="M158.867,51.931l2.023,6.66c0,0 11.489,-3.41 11.976,-3.204c3.639,1.538 6.821,4.409 7.905,7.339c0.884,2.391 0.855,4.802 0.073,6.746c-0.212,0.525 -0.557,0.958 -0.468,1.554c0.138,0.93 1.207,2.764 1.3,4.025c0.188,2.566 -1.375,5.149 -4.382,7.049c-1.852,1.169 -5.239,2.716 -10.798,2.351c-2.379,-0.156 -4.785,-0.919 -6.898,-2.079c-2.037,-1.026 -3.625,-2.534 -4.759,-4.359c-2.464,1.529 -4.719,2.139 -7.728,1.941c-0.882,-0.059 -1.774,-0.21 -2.639,-0.462c-0.912,3.121 -2.554,6.008 -5.233,9.319c-1.31,1.619 -3.378,2.65 -5.612,2.693c-1.848,0.035 -3.702,-0.642 -5.033,-1.75c-2.034,1.337 -4.139,1.827 -6.223,2.092c-1.608,0.205 -3.728,-0.126 -5.252,-0.983c-1.168,-0.658 -2.099,-1.542 -2.735,-2.63c-2.843,2.222 -5.579,2.923 -7.678,3.073c-1.955,0.139 -4.459,-0.458 -6.188,-2.158c-1.348,0.6 -2.888,0.804 -4.446,0.494c-0.007,-0.001 -0.014,-0.003 -0.021,-0.004c-1.436,-0.291 -2.689,-0.979 -3.669,-1.927c-2.732,2.602 -6,3.809 -9.201,3.817c-1.725,0.005 -3.597,-0.448 -5.114,-1.452c-1.138,0.725 -2.484,1.159 -3.748,1.19c-0.702,0.018 -1.403,-0.093 -2.077,-0.31c-0.491,0.1 -0.982,0.147 -1.457,0.144c-0.819,0.284 -1.704,0.419 -2.621,0.374c-0.928,-0.044 -1.805,-0.267 -2.599,-0.633c-0.416,0.104 -0.844,0.169 -1.28,0.19c-0.04,0.002 -0.08,0.003 -0.12,0.005c-1.353,0.039 -2.709,-0.403 -3.882,-1.16c-1.045,0.563 -2.242,0.877 -3.51,0.864l-5.677,-0.042c-0.004,-0 -0.007,-0 -0.011,-0.001c-0.123,-0.001 -0.246,-0.005 -0.368,-0.012c-0.515,0.274 -1.034,0.471 -1.543,0.613c-1.413,0.393 -2.89,0.379 -4.407,-0.132c-1.298,-0.438 -2.454,-1.18 -3.331,-2.171c-2.051,3.282 -5.021,5.978 -8.68,7.386c-4.943,2.038 -10.576,1.82 -15.649,0.458c-0.014,-0.003 -0.029,-0.007 -0.043,-0.011c-6.698,-1.875 -13.845,-13.083 -13.845,-13.083l31.791,-0.654l0.643,-43.744c0.049,-0.006 0.462,-0.03 0.511,-0.034c4.49,-0.381 8.722,3.252 9.094,6.691c0.081,0.754 0.159,1.509 0.232,2.264c0.307,-0.384 19.635,-13.579 19.635,-13.579c0,0 1.548,-0.191 1.875,-0.035c3.088,1.474 3.917,4.195 3.666,7.562c-0.11,1.486 -0.189,4.981 -0.244,6.527c1.147,-0.932 75.508,3.404 75.508,3.404l17.818,-39.517c0.008,0.002 0.015,0.005 0.022,0.007c3.044,1 4.719,2.815 5.634,4.802c1.184,2.573 0.967,5.772 -0.199,8.562l-10.338,25.93Z" style="fill:#500;"/><g><g><path id="path41-2-6-71" serif:id="path41-2-6-7" d="M104.97,10.93c0.013,-0.103 0.03,-0.207 0.052,-0.311l0.001,-0.005c0.623,-2.975 2.269,-5.751 4.72,-7.2c1.13,-0.667 2.445,-1.121 3.975,-1.187c0.428,-0.387 0.892,-0.731 1.388,-1.025c1.883,-1.113 4.293,-1.652 7.366,-0.741c0.033,0.01 0.065,0.02 0.098,0.03l11.505,3.672c1.835,-1.224 3.736,-1.569 5.56,-1.14c0.131,0.031 0.261,0.067 0.389,0.108l21.978,7.111c0.007,0.002 0.014,0.004 0.021,0.007c3.044,1 4.719,2.815 5.634,4.801c1.184,2.574 0.967,5.773 -0.199,8.563l-10.42,26.138c-0.55,1.379 -1.659,2.381 -2.972,2.835l-2.486,6.493c-0.73,1.909 -2.825,2.914 -4.771,2.29l-44.337,-14.216c-1.798,-0.576 -2.897,-2.361 -2.638,-4.2c-1.07,-1.159 -1.559,-2.806 -1.185,-4.444c0,-0 5.176,-22.654 6.21,-27.179c0.032,-0.142 0.069,-0.275 0.111,-0.4Z" style="fill:#f3f2f2;"/><path d="M152.15,48.96l-28.017,-8.34c-0.571,-0.17 -0.897,-0.77 -0.727,-1.342l8.05,-27.156c0.063,-0.214 0.191,-0.403 0.366,-0.541c1.38,-1.087 2.554,-2.676 3.688,-3.673c1.071,-0.941 2.16,-1.392 3.244,-1.137c0.028,0.007 0.057,0.015 0.085,0.024l21.978,7.11c0.001,0.001 0.003,0.001 0.004,0.002c1.78,0.584 2.804,1.592 3.338,2.753c0.761,1.653 0.489,3.706 -0.265,5.496l-10.433,26.169c-0.207,0.519 -0.776,0.794 -1.311,0.635Z" style="fill:#500;"/><path d="M151.82,46.609l10.072,-25.263c0.003,-0.007 0.006,-0.013 0.009,-0.02c0.518,-1.228 0.818,-2.629 0.297,-3.763c-0.322,-0.698 -0.979,-1.252 -2.049,-1.604c-0,-0 -21.922,-7.092 -21.923,-7.093c-0.197,-0.034 -0.385,0.041 -0.579,0.145c-0.237,0.128 -0.472,0.309 -0.712,0.52c-1.084,0.952 -2.209,2.427 -3.503,3.523c-0,-0 -7.649,25.804 -7.649,25.804l26.037,7.751Z" style="fill:#de8787;"/><path d="M112.741,14.941c-0,0 1.416,-5.763 1.415,-5.757c0.399,-1.9 1.344,-3.741 2.91,-4.667c1.1,-0.651 2.516,-0.897 4.312,-0.364c0.007,0.002 0.014,0.004 0.021,0.006l13.979,4.462c0.022,0.007 0.044,0.015 0.066,0.023c1.036,0.407 1.675,1.398 2.02,2.782c0.365,1.465 0.426,3.439 0.941,5.118c0.067,0.216 0.064,0.447 -0.008,0.661l-1.694,5.033c-0.186,0.554 -0.78,0.859 -1.339,0.688l-21.891,-6.694c-0.548,-0.168 -0.869,-0.734 -0.732,-1.291Z" style="fill:#500;"/><path d="M115.081,14.465l19.911,6.089c-0,-0 1.251,-3.719 1.251,-3.719c-0.439,-1.636 -0.526,-3.488 -0.875,-4.887c-0.077,-0.309 -0.167,-0.592 -0.289,-0.832c-0.101,-0.198 -0.214,-0.368 -0.4,-0.452c-0,0 -13.925,-4.444 -13.932,-4.446c-1.073,-0.314 -1.924,-0.232 -2.582,0.158c-1.075,0.635 -1.626,1.958 -1.898,3.262c-0.002,0.013 -0.005,0.025 -0.008,0.038l-1.178,4.789Z" style="fill:#fca;"/><path d="M102.403,39.366c-0,0 6.39,-27.967 6.388,-27.96c0.398,-1.904 1.343,-3.75 2.912,-4.677c1.1,-0.651 2.516,-0.897 4.312,-0.364c0.007,0.002 0.014,0.004 0.021,0.006l13.979,4.462c0.022,0.007 0.044,0.015 0.066,0.023c1.036,0.408 1.675,1.398 2.02,2.782c0.365,1.465 0.426,3.439 0.942,5.118c0.066,0.216 0.063,0.446 -0.009,0.66l-8.965,26.748c-0.187,0.559 -0.788,0.864 -1.35,0.686l-19.59,-6.214c-0.536,-0.17 -0.851,-0.722 -0.726,-1.27Z" style="fill:#500;"/><path d="M104.729,38.878c0,0 17.63,5.592 17.63,5.592c0,0 8.521,-25.422 8.521,-25.422c-0.439,-1.637 -0.526,-3.489 -0.875,-4.888c-0.077,-0.309 -0.167,-0.592 -0.289,-0.832c-0.101,-0.198 -0.214,-0.368 -0.4,-0.452c-0,0 -13.925,-4.444 -13.932,-4.446c-1.073,-0.314 -1.924,-0.232 -2.582,0.158c-1.075,0.635 -1.626,1.958 -1.898,3.263c-0.001,0.006 -0.003,0.013 -0.004,0.02l-6.171,27.007Z" style="fill:#fca;"/><g><g id="g75-6-9"><path id="path74-3-3" d="M135.13,12.85c-1.475,-0.426 -2.529,0.274 -3.49,0.861c-0.777,0.475 -1.8,0.949 -2.608,1.458l-12.503,-3.745c-1.25,-0.461 -2.657,-0.459 -3.87,0.154c-1.214,0.613 -2.244,1.994 -2.623,3.645l-6.389,28.264l44.337,14.216l11.49,-30.019c0.013,-0.023 0.024,-0.047 0.035,-0.069c0.609,-1.848 0.631,-3.635 -0.193,-5.072c-0.825,-1.438 -2.424,-2.5 -3.984,-3.036l-0.012,-0.004l-20.141,-6.638c-0.016,-0.006 -0.032,-0.011 -0.049,-0.016l0,0.001Z" style="fill:#0c0c0c;fill-rule:nonzero;"/><path id="path75-9-7" d="M105.055,42.492l6.577,-26.907c0.527,-2.295 3.008,-3.111 4.333,-2.623l13.556,4.052c2.222,-1.297 3.993,-2.932 5.149,-2.596l20.139,6.631c2.494,0.855 4.115,3.107 3.144,6.056l-10.835,28.742l-42.063,-13.355Z" style="fill:url(#_Linear1);fill-rule:nonzero;"/><path id="path66-8-4" d="M136.615,17.208l16.616,5.59c1.916,0.605 3.955,2.442 2.996,5.4c-3.01,8.886 -7.121,15.106 -7.958,16.567c-0,0 -10.17,5.146 -21.202,1.78c-12.011,-4.072 -15.669,-13.374 -15.669,-13.374l1.52,-16.011c0.522,-3.141 3.075,-2.387 4.5,-1.915l12.234,3.742c0.244,0.133 4.361,-2.637 5.319,-2.307l1.644,0.528Z" style="fill:#fcbc5b;fill-rule:nonzero;"/></g><g><path id="path38-1-5" d="M141.917,34.168c1.264,0.395 2.037,1.526 1.725,2.525c-0.312,0.999 -1.592,1.489 -2.856,1.094c-1.264,-0.395 -2.037,-1.526 -1.725,-2.525c0.312,-0.998 1.592,-1.489 2.856,-1.094Z" style="fill:#ff5e7d;"/><path id="path38-2-2-2" d="M120.309,27.04c1.264,0.395 2.037,1.527 1.725,2.525c-0.312,0.999 -1.591,1.489 -2.855,1.095c-1.264,-0.395 -2.037,-1.527 -1.725,-2.525c0.312,-0.999 1.591,-1.489 2.855,-1.095Z" style="fill:#ff5e7d;"/><g id="g35-8-5"><path id="path33-5-4" d="M124.484,20.327c1.998,0.624 3.102,2.788 2.465,4.83c-0.638,2.041 -2.778,3.192 -4.775,2.568c-1.998,-0.624 -3.103,-2.788 -2.465,-4.83c0.638,-2.041 2.777,-3.192 4.775,-2.568Z"/><path id="path34-09-7" d="M124.206,21.239c0.563,0.176 0.878,0.776 0.702,1.34c-0.176,0.563 -0.776,0.877 -1.34,0.701c-0.563,-0.175 -0.878,-0.776 -0.702,-1.339c0.176,-0.563 0.777,-0.878 1.34,-0.702Z" style="fill:#f9f9f9;"/><path id="path35-63-4" d="M122.341,22.917c0.403,0.126 0.627,0.555 0.502,0.957c-0.126,0.403 -0.555,0.627 -0.957,0.502c-0.402,-0.126 -0.627,-0.555 -0.501,-0.957c0.125,-0.403 0.554,-0.627 0.956,-0.502Z" style="fill:#f9f9f9;"/></g><g id="g35-3-8-4"><path id="path33-6-5-3" d="M143.287,26.16c1.998,0.624 3.102,2.788 2.464,4.83c-0.637,2.041 -2.777,3.192 -4.775,2.568c-1.998,-0.624 -3.102,-2.788 -2.464,-4.83c0.637,-2.041 2.777,-3.192 4.775,-2.568Z"/><path id="path34-0-6-0" d="M143.009,27.072c0.563,0.176 0.877,0.776 0.701,1.34c-0.176,0.563 -0.776,0.877 -1.339,0.702c-0.563,-0.176 -0.878,-0.777 -0.702,-1.34c0.176,-0.563 0.776,-0.878 1.34,-0.702Z" style="fill:#f9f9f9;"/><path id="path35-6-1-7" d="M141.144,28.75c0.402,0.126 0.627,0.555 0.501,0.957c-0.125,0.403 -0.554,0.627 -0.956,0.502c-0.403,-0.126 -0.628,-0.555 -0.502,-0.957c0.126,-0.403 0.555,-0.627 0.957,-0.502Z" style="fill:#f9f9f9;"/></g><path d="M129.302,28.163c0.041,-0.358 0.365,-0.616 0.723,-0.575c0.359,0.041 0.616,0.365 0.575,0.723c0,-0 -0.147,1.224 1.21,1.642c1.428,0.44 2.033,-0.601 2.033,-0.601c0.159,-0.324 0.551,-0.458 0.875,-0.299c0.323,0.159 0.457,0.551 0.298,0.875c-0,-0 -1.024,2.176 -3.603,1.381c-2.444,-0.753 -2.111,-3.146 -2.111,-3.146Z"/></g></g></g><g id="starts"><path d="M96.191,19.891c-0.007,0.108 -0.155,0.208 -0.3,0.277c-1.47,0.706 -2.444,2.033 -3.139,3.817c-0.056,0.143 -0.107,0.331 -0.259,0.326c-0.149,-0.005 -0.192,-0.206 -0.238,-0.333c-0.53,-1.442 -1.741,-3.018 -3.24,-3.719c-0.164,-0.077 -0.308,-0.167 -0.323,-0.307c-0.013,-0.129 0.097,-0.241 0.241,-0.31c1.745,-0.83 2.711,-2.094 3.257,-3.654c0.06,-0.17 0.158,-0.455 0.367,-0.454c0.187,0 0.299,0.352 0.37,0.527c0.698,1.71 1.614,2.842 3.071,3.592c0.109,0.056 0.202,0.104 0.193,0.238Z" style="fill:#fca;"/><path d="M170.94,44.393c-0.007,-0.093 -0.135,-0.18 -0.261,-0.24c-1.278,-0.614 -2.125,-1.768 -2.729,-3.319c-0.048,-0.124 -0.093,-0.288 -0.225,-0.283c-0.13,0.004 -0.167,0.178 -0.207,0.289c-0.461,1.254 -1.513,2.624 -2.817,3.234c-0.142,0.066 -0.268,0.145 -0.28,0.267c-0.012,0.112 0.084,0.209 0.209,0.269c1.517,0.721 2.357,1.82 2.832,3.176c0.052,0.148 0.137,0.396 0.318,0.396c0.163,-0.001 0.26,-0.307 0.322,-0.459c0.607,-1.487 1.404,-2.471 2.67,-3.123c0.094,-0.048 0.176,-0.09 0.168,-0.207Z" style="fill:#fca;"/><path d="M166.709,34.795c0.005,-0.075 0.109,-0.145 0.209,-0.194c1.029,-0.494 1.71,-1.422 2.196,-2.67c0.039,-0.099 0.075,-0.231 0.182,-0.227c0.104,0.003 0.133,0.143 0.166,0.232c0.37,1.009 1.217,2.111 2.266,2.602c0.115,0.053 0.215,0.116 0.226,0.214c0.009,0.09 -0.068,0.169 -0.169,0.217c-1.22,0.58 -1.896,1.464 -2.278,2.555c-0.042,0.119 -0.11,0.319 -0.256,0.318c-0.131,-0 -0.209,-0.246 -0.259,-0.369c-0.488,-1.196 -1.129,-1.988 -2.148,-2.512c-0.076,-0.039 -0.141,-0.073 -0.135,-0.166Z" style="fill:#fca;"/><path d="M94.362,8.058c0.006,-0.083 0.121,-0.16 0.232,-0.214c1.137,-0.546 1.891,-1.572 2.428,-2.952c0.043,-0.11 0.082,-0.256 0.201,-0.252c0.115,0.004 0.147,0.159 0.184,0.258c0.409,1.115 1.346,2.334 2.505,2.876c0.127,0.059 0.238,0.129 0.25,0.238c0.01,0.099 -0.075,0.186 -0.187,0.239c-1.349,0.642 -2.096,1.619 -2.519,2.826c-0.046,0.131 -0.122,0.352 -0.283,0.351c-0.145,-0 -0.231,-0.273 -0.286,-0.408c-0.54,-1.322 -1.249,-2.198 -2.376,-2.778c-0.083,-0.043 -0.156,-0.08 -0.149,-0.184Z" style="fill:#fca;"/><path d="M99.123,15.027c0.004,-0.063 0.091,-0.122 0.176,-0.163c0.868,-0.416 1.442,-1.199 1.853,-2.252c0.032,-0.084 0.062,-0.195 0.152,-0.192c0.088,0.003 0.113,0.121 0.141,0.197c0.312,0.85 1.026,1.78 1.911,2.194c0.097,0.045 0.182,0.098 0.19,0.181c0.008,0.076 -0.057,0.142 -0.142,0.182c-1.029,0.49 -1.599,1.236 -1.921,2.156c-0.035,0.1 -0.093,0.269 -0.216,0.268c-0.111,-0.001 -0.177,-0.208 -0.219,-0.311c-0.412,-1.009 -0.952,-1.677 -1.812,-2.119c-0.063,-0.033 -0.119,-0.062 -0.113,-0.141Z" style="fill:#fca;"/></g></g><g><path d="M40.17,86.847c-2.052,3.281 -5.021,5.977 -8.681,7.385c-4.943,2.039 -10.575,1.821 -15.649,0.459c-0.014,-0.004 -0.028,-0.008 -0.043,-0.012c-6.698,-1.874 -11.149,-6.878 -13.845,-13.082c-1.51,-3.475 -2.543,-7.169 -1.577,-10.366c0.002,-0.006 0.004,-0.012 0.006,-0.018c0.966,-3.145 3.877,-6.163 6.629,-7.17c2.553,-0.935 6.372,-0.595 9.336,1.726c1.051,0.822 1.86,1.963 2.523,3.422c0.474,1.042 0.87,2.362 1.697,3.718c0.288,0.474 0.678,1.005 1.153,1.453c0.237,0.223 0.41,0.604 0.735,0.562c0.03,-0.003 0.059,-0.007 0.089,-0.01c0.152,-0.382 0.504,-1.306 0.572,-1.83c0.839,-7.863 0.06,-15.794 -0.899,-23.613c-1.065,-4.214 0.188,-9.484 4.995,-11.085c0.143,-0.048 0.288,-0.087 0.434,-0.119c2.337,-0.507 7.105,-1.088 7.105,-1.088c0.049,-0.005 0.098,-0.01 0.147,-0.015c4.491,-0.38 8.005,3.313 8.376,6.752c0.081,0.754 0.159,1.508 0.233,2.263c0.306,-0.384 0.635,-0.753 0.987,-1.104c2.448,-2.566 5.805,-3.74 9.284,-3.883c0.044,-0.902 0.095,-1.781 0.156,-2.564c0.307,-3.94 2.657,-5.463 4.73,-6.414c1.945,-0.893 4.652,-0.863 7.07,0.291c3.088,1.475 4.127,4.243 3.877,7.61c-0.111,1.485 -0.189,3.008 -0.244,4.554c2.377,-1.931 5.48,-3.214 8.689,-3.356c1.23,-0.054 3.338,-0.018 5.072,0.495c0.343,0.101 0.674,0.214 0.994,0.336c0.621,-2.387 2.373,-4.37 4.762,-5.107c0.195,-1.245 0.453,-2.53 0.769,-3.34c1.752,-4.495 7.266,-6.781 11.021,-6.69c2.259,0.055 5.276,0.751 6.425,1.485c1.935,1.235 3.138,2.92 3.535,5.056c2.383,-0.339 4.495,0.285 5.693,0.917c3.288,1.736 4.713,4.081 4.046,7.322c-0.014,0.065 -0.029,0.129 -0.045,0.193c-0.107,0.417 -0.212,0.834 -0.316,1.252c2.113,-1.286 4.575,-1.976 7.05,-2.028c0.376,-0.508 0.784,-0.931 1.188,-1.223c1.223,-0.887 2.27,-1.641 5.926,-1.104c3.013,0.443 5.248,3.113 5.567,5.28c0.113,0.765 0.129,1.653 0.054,2.571c0.34,-0.049 0.676,-0.073 1.002,-0.07c0.071,0.001 0.141,0.002 0.208,0.003c0.227,-0.677 0.448,-1.328 0.652,-1.848c1.409,-3.604 4.581,-4.961 7.768,-4.562l-0.206,-0.019c0.361,0.036 2.334,0.254 3.675,0.92c2.811,1.396 4.615,4.752 3.813,7.794c-0.03,0.112 -0.061,0.222 -0.094,0.332c0.068,0.029 0.136,0.06 0.202,0.091c1.291,0.603 2.307,1.433 2.941,2.317c0.356,0.498 0.639,1.059 0.852,1.656c1.773,-0.765 3.754,-1.161 5.878,-1.072c1.255,0.052 3.411,0.25 5.113,0.969c3.638,1.538 6.119,4.467 7.203,7.397c0.884,2.391 0.855,4.802 0.073,6.746c-0.212,0.525 -0.52,1.054 -0.897,1.57c1.027,1.261 1.636,2.748 1.729,4.009c0.188,2.566 -0.674,5.09 -3.681,6.99c-1.852,1.17 -5.238,2.717 -10.797,2.352c-2.38,-0.156 -4.785,-0.919 -6.899,-2.08c-2.036,-1.026 -3.624,-2.533 -4.759,-4.359c-2.463,1.53 -4.719,2.14 -7.727,1.941c-0.883,-0.058 -1.775,-0.209 -2.639,-0.461c-0.913,3.121 -2.554,6.008 -5.234,9.319c-1.31,1.619 -3.378,2.65 -5.612,2.692c-1.848,0.036 -3.702,-0.641 -5.033,-1.749c-2.034,1.337 -4.139,1.827 -6.223,2.092c-1.608,0.204 -3.728,-0.126 -5.251,-0.984c-1.169,-0.657 -2.1,-1.541 -2.736,-2.629c-2.843,2.221 -5.579,2.923 -7.677,3.072c-1.956,0.139 -4.46,-0.457 -6.189,-2.157c-1.348,0.6 -2.888,0.803 -4.445,0.494c-0.008,-0.002 -0.015,-0.003 -0.022,-0.005c-1.436,-0.291 -2.689,-0.979 -3.669,-1.926c-2.732,2.602 -5.999,3.809 -9.201,3.817c-1.724,0.005 -3.597,-0.448 -5.113,-1.452c-1.139,0.725 -2.485,1.158 -3.749,1.19c-0.702,0.017 -1.402,-0.094 -2.077,-0.31c-0.491,0.099 -0.982,0.147 -1.457,0.144c-0.819,0.283 -1.704,0.418 -2.621,0.374c-0.928,-0.045 -1.805,-0.267 -2.599,-0.633c-0.416,0.104 -0.844,0.169 -1.279,0.19c-0.041,0.002 -0.081,0.003 -0.121,0.004c-1.353,0.04 -2.709,-0.402 -3.881,-1.159c-1.046,0.562 -2.242,0.877 -3.511,0.864l-5.677,-0.043c-0.004,0 -0.007,0 -0.011,0c-0.123,-0.001 -0.246,-0.005 -0.367,-0.012c-0.515,0.273 -1.035,0.471 -1.544,0.613c-1.413,0.393 -2.89,0.379 -4.406,-0.133c-1.298,-0.438 -2.454,-1.179 -3.331,-2.17Z" style="fill:#f3f2f2;"/><g><path id="path88" d="M47.263,69.921c3.423,0.045 6.193,0.104 9.148,0.188c0.573,0.016 1.025,0.491 1.014,1.063c-0.011,0.576 -0.487,1.035 -1.063,1.023c-2.032,-0.039 -6.235,-0.106 -7.873,-0.159c-0.075,-0.002 -0.144,-0.005 -0.208,-0.007c0.077,1.945 0.127,4.218 -0.059,6.225c-0.189,2.031 -0.709,3.534 -1.016,4.025c-0.492,0.787 -1.077,1.023 -1.705,0.811c-0.545,-0.184 -0.886,-0.728 -0.715,-1.428c0.161,-0.656 0.766,-0.681 0.766,-0.681c0.193,-0.619 0.485,-1.628 0.633,-2.874c0.267,-2.238 0.142,-5.097 0.023,-7.073c-0.041,-0.608 0.446,-1.121 1.055,-1.113Zm5.813,3.36c0.576,0.022 1.026,0.507 1.004,1.083l-0.002,0.98l1.426,0.006c0.573,0.016 1.025,0.491 1.014,1.063c-0.011,0.577 -0.487,1.035 -1.063,1.024l-1.466,-0.007l-0.113,2.839l1.708,-0.019c0.572,0.011 1.029,0.481 1.023,1.053c-0.005,0.577 -0.477,1.04 -1.053,1.034l-5.678,-0.043c-0.58,-0.005 -1.044,-0.483 -1.033,-1.064c0.011,-0.576 0.487,-1.034 1.063,-1.023l1.883,0.032l0.113,-2.859l-1.602,-0.03c-0.573,-0.016 -1.025,-0.491 -1.014,-1.063c0.011,-0.577 0.487,-1.035 1.064,-1.024l1.632,0.031l0.012,-1.019c0.026,-0.572 0.509,-1.012 1.082,-0.994Zm83.545,-4.135c0.632,0.006 1.286,0.525 1.276,1.157c-0.075,4.833 -1.334,8.157 -4.788,12.425c-0.397,0.492 -1.32,0.483 -1.79,0.061c-0.465,-0.419 -0.672,-1.333 -0.267,-1.81c3.39,-3.997 4.85,-6.105 4.234,-10.744c-0.082,-0.618 0.604,-1.097 1.335,-1.089Zm-6.031,0.591c0.613,0.029 1.214,0.354 1.167,1.197c-0.087,1.547 0.594,3.085 1.233,4.584c0.245,0.576 -0.312,1.223 -0.92,1.375c-0.612,0.154 -1.246,-0.255 -1.504,-0.831c-0.608,-1.358 -1.398,-3.189 -1.291,-5.247c0.033,-0.628 0.687,-1.109 1.315,-1.078Zm-12.503,1.267c2.752,0.052 4.766,0.143 7.221,0.523c0.556,0.086 0.966,0.555 0.89,1.247c-0.101,0.92 -0.888,0.885 -1.501,0.827c-2.162,-0.203 -4.585,-0.423 -6.942,-0.473c-0.614,-0.015 -1.005,-0.57 -0.934,-1.193c0.07,-0.611 0.651,-0.939 1.266,-0.931Zm-1.838,3.136c0.848,-0.083 3.072,-0.061 5.419,0.16c2.552,0.24 4.871,0.645 5.107,1.035c0.376,0.621 -0.051,4.104 -1.328,5.619c-1.609,1.912 -3.407,2.319 -5.133,2.538c-0.708,0.09 -1.807,-0.127 -1.892,-0.927c-0.064,-0.608 0.338,-1.115 0.948,-1.167c2.017,-0.172 2.597,-0.22 3.863,-1.235c1.386,-1.112 1.492,-3.175 1.383,-3.225c-1.301,-0.344 -3.57,-0.559 -4.483,-0.611c-1.612,-0.091 -2.45,-0.086 -3.888,-0.091c-0.738,-0.003 -1.112,-0.466 -1.136,-0.966c-0.023,-0.493 0.338,-1.051 1.14,-1.13Zm-37.788,-0.475c0.891,-0.254 9.941,0.105 10.427,0.848c0.626,0.959 -0.067,4.212 -1.343,5.727c-1.61,1.912 -3.629,2.88 -5.647,2.885c-0.714,0.002 -1.823,0.025 -1.892,-0.927c-0.044,-0.611 0.459,-1.215 1.07,-1.229c2.14,-0.049 2.797,-0.266 4.063,-1.281c1.385,-1.111 1.69,-3.434 1.575,-3.464c-1.302,-0.335 -4.944,-0.777 -8.257,-0.463c-0.797,-0.032 -0.984,-0.485 -1.008,-0.985c-0.023,-0.494 0.404,-0.997 1.012,-1.111Zm35.211,-2.992c0.293,0.425 0.619,0.796 0.64,0.807c0.35,0.232 0.444,0.704 0.211,1.054c-0.234,0.353 -0.714,0.448 -1.064,0.207c-0.453,-0.306 -0.747,-0.732 -1.079,-1.262c-0.219,-0.357 -0.083,-0.788 0.247,-1.043c0.325,-0.249 0.801,-0.117 1.045,0.237Zm-2.416,0.343c0.308,0.031 0.567,0.246 0.653,0.544c0.144,0.484 0.407,0.817 0.883,1.375c0.277,0.32 0.239,0.805 -0.084,1.078c-0.322,0.275 -0.806,0.233 -1.077,-0.091c-0.487,-0.571 -0.94,-1.114 -1.179,-1.918c-0.127,-0.404 0.1,-0.834 0.505,-0.956c0.097,-0.036 0.299,-0.032 0.299,-0.032Zm-2.307,0.584c0.268,0.031 0.531,0.071 0.78,0.141c0.076,0.021 0.107,0.073 0.11,0.128c0.015,0.297 0.176,0.779 0.286,0.985c0.192,0.363 0.484,0.879 0.672,1.134c0.618,0.839 1.306,1.195 1.893,0.526c0.034,-0.039 0.109,-0.005 0.11,0.043c0.013,0.451 -0.03,1.089 -0.066,1.329c-0.202,1.39 -1.308,3.204 -2.186,4.11c-2.049,2.111 -4.051,2.815 -5.552,2.922c-0.538,0.038 -1.449,-0.071 -1.519,-0.954c-0.049,-0.603 0.399,-1.053 1.178,-1.115c1.175,-0.094 2.602,-0.652 4.181,-2.405c0.831,-0.923 1.306,-2.569 1.338,-3.137c0.032,-0.568 -0.046,-0.831 -0.915,-1.157c-1.142,-0.43 -4.394,-0.665 -6.873,-0.337c-0.626,0.083 -1.224,-0.276 -1.347,-0.895c-0.128,-0.616 0.265,-1.233 0.884,-1.346c1.99,-0.363 4.689,-0.249 7.026,0.028Zm-8.851,-3.078c0.512,-0.362 1.242,0.087 1.46,0.676c0.215,0.589 -0.087,1.241 -0.675,1.459c-1.001,0.677 -2.202,1.746 -3.194,2.357c0.523,3.268 0.024,5.734 -0.322,7.444c-0.121,0.62 -0.722,1.024 -1.341,0.9c-0.619,-0.125 -1.018,-0.73 -0.889,-1.349c0.312,-1.54 0.725,-3.823 0.549,-6.004c-0.93,0.587 -1.798,1.118 -3.645,2.081c-0.486,0.401 -1.298,0.218 -1.699,-0.268c-0.404,-0.483 -0.259,-1.463 0.32,-1.711c4.828,-2.069 6.974,-3.843 9.436,-5.585Zm-20.105,1.956c2.876,-0.026 5.073,0.123 7.937,0.584c0.551,0.089 1.013,0.741 0.867,1.28c-0.149,0.542 -0.661,0.906 -1.216,0.815c-2.626,-0.429 -5.593,-0.437 -7.736,-0.419c-0.584,0.005 -1.314,-0.294 -1.336,-1.093c-0.02,-0.774 0.924,-1.162 1.484,-1.167Zm-10.639,-2.478c0.496,-0.044 0.983,0.215 1.058,0.628l0.128,0.712l2.894,0.01c0.402,0.003 0.732,0.32 0.752,0.722l0.059,1.256c0.018,0.414 -0.432,0.771 -0.845,0.791c-0.418,0.025 -1.043,-0.255 -1.068,-0.672l-0.001,-0.563l-2.636,-0.071l-2.338,-0.005l-0.005,0.681c0.013,0.421 -0.554,0.796 -0.976,0.804c-0.421,0.012 -0.86,-0.32 -0.87,-0.742l-0.04,-1.484c-0.012,-0.428 0.378,-0.723 0.807,-0.722l2.283,-0.024l-0.079,-0.435c-0.073,-0.412 0.358,-0.84 0.877,-0.886Zm-6.796,1.176c0.373,0.196 0.618,0.731 0.42,1.102l-0.994,1.791l0.307,0.475l0.955,-1.341c0.24,-0.346 0.788,-0.341 1.132,-0.101c0.341,0.243 0.421,0.718 0.178,1.059l-1.682,2.498l1.128,-0.091l-0.168,-0.5c-0.094,-0.409 0.164,-0.819 0.574,-0.91c0.41,-0.093 0.817,0.164 0.91,0.574l0.366,1.593l1.513,-3.126c0.182,-0.376 0.632,-0.534 1.01,-0.355c0.341,0.186 0.486,0.601 0.336,0.96l5.342,-0.061c0.417,-0.001 0.757,0.335 0.762,0.752c0.006,0.422 -0.353,0.901 -0.774,0.905l-1.732,0.021l-0.383,0.845l1.137,0.041c0.398,0.02 0.713,0.343 0.723,0.742l0.158,6.034c0.012,0.417 -0.463,0.771 -0.88,0.782c-0.421,0.012 -0.876,-0.336 -0.885,-0.758l-0.01,-0.405l-1.549,0.06c0.024,0.699 -0.506,0.958 -0.91,0.934c-0.416,-0.024 -0.922,-0.216 -0.895,-0.853l0,-5.926c-0.001,-0.432 0.329,-0.752 0.762,-0.731l0.579,0.007l0.353,-0.757l-1.971,0.019c-0.004,0.034 -0.013,0.146 -0.017,0.219c-0.067,1.317 -0.364,7.682 -0.364,7.682c-0.02,0.417 -0.374,0.742 -0.791,0.722c-0.422,-0.02 -0.746,-0.38 -0.722,-0.802l0.277,-5.668l-0.355,0.577c-0.192,0.211 -0.371,0.343 -0.7,0.252c-0.328,-0.095 -0.542,-0.43 -0.504,-0.679c-0.216,0.128 -0.764,-0.022 -0.8,-0.459l-0.998,0.071l0.112,5.483c0.012,0.417 -0.374,0.761 -0.791,0.781c-0.418,0.013 -0.885,-0.314 -0.9,-0.731l-0.144,-5.456l-1.46,0.109c-0.421,0.029 -0.775,-0.384 -0.801,-0.806c-0.023,-0.414 0.245,-0.89 0.658,-0.92l0.565,-0.081l0.667,-0.717l-2.087,-2.493c-0.272,-0.317 -0.089,-0.899 0.227,-1.172c0.319,-0.282 0.907,-0.262 1.182,0.06l0.243,0.278l0.662,-1.222c0.229,-0.424 0.667,-0.498 1.029,-0.307Zm7.894,7.534l-0,1.049l1.44,0.051l-0.029,-1.029l-1.411,-0.071Zm0,2.582l-0,0.942l1.509,-0.061l-0.029,-0.831l-1.48,-0.05Zm-5.984,-1.726l-0,-0c0.409,-0.086 0.896,0.174 0.984,0.584l0.257,1.177c0.087,0.41 -0.258,0.81 -0.668,0.901c-0.409,0.085 -0.885,-0.175 -0.973,-0.585l-0.109,-1.147c-0.087,-0.41 0.099,-0.839 0.509,-0.93Zm-3.512,0.278c0.407,0.101 0.738,0.523 0.637,0.93l-0.484,1.969c-0.097,0.411 -0.594,0.654 -1.004,0.553c-0.407,-0.102 -0.718,-0.544 -0.617,-0.952l0.514,-1.857c0.202,-0.705 0.698,-0.707 0.954,-0.643Z" style="fill:#ff5e7d;"/><g><g><path d="M117.388,54.912c0.061,0.697 0.207,1.467 0.43,2.129c0.845,2.58 2.869,4.615 5.829,5.233c1.094,0.228 2.899,0.405 4.882,-0.358c0.601,-0.232 1.22,-0.55 1.84,-0.98c0.67,1.215 1.685,1.585 2.992,1.387c0.725,-0.11 1.891,-0.958 2.115,-2.295c-6.235,-2.151 -12.221,-3.868 -18.088,-5.116Z" style="fill:#ff5e7d;"/><path d="M105.47,53.068c-0.41,3.413 -0.858,6.954 -0.164,10.371c0.909,4.475 5.076,4.859 6.387,4.938c1.497,0.015 2.685,-0.208 3.72,-0.857c1.628,-1.02 2.99,-2.347 2.992,-3.964c0.002,-1.546 -0.7,-3.206 -1.766,-3.941c-1.266,-0.875 -2.445,-0.776 -3.626,0.644c-0.482,-0.158 -0.458,-1.545 -0.393,-2.348c0.103,-1.257 0.256,-2.629 0.422,-3.877c-2.526,-0.435 -5.051,-0.726 -7.572,-0.966Z" style="fill:#ff5e7d;"/><path d="M91.293,52.697c-0.085,3.276 -0.19,7.218 -0.244,9.258c-0.064,2.41 1.789,3.544 3.205,3.578c1.553,0.037 3.638,-0.132 3.77,-2.831c0.022,-0.465 0.021,-5.745 0.092,-10.034c-2.258,-0.038 -4.525,-0.102 -6.823,0.029Z" style="fill:#ff5e7d;"/><path d="M67.501,56.788c-0.015,0.634 0.062,1.505 0.177,2.099c0.599,3.044 2.89,5.62 5.76,6.743c1.678,0.752 3.545,1.196 5.355,1.159c4.271,-0.087 6.364,-1.275 7.647,-2.359c1.128,-0.952 1.328,-2.195 1.229,-3.214c-0.088,-0.904 -0.416,-1.408 -1.143,-1.967c-1.057,-0.649 -2.527,0.158 -3.424,0.683c-1.948,1.138 -4.243,1.247 -6.437,0.591c-0.929,-0.321 -1.874,-0.822 -2.386,-1.698c3.388,0.392 6.099,0.412 9.181,-1.225c1.418,-0.719 2.704,-2.054 3.219,-3.593c0.085,-0.254 0.184,-0.648 0.219,-0.922c-6.187,0.643 -12.586,1.74 -19.397,3.703Z" style="fill:#ff5e7d;"/><path d="M155.144,67.588c-0.009,0.399 0.018,0.979 0.06,1.38c0.336,3.084 1.799,5.81 4.563,7.175c1.607,0.893 3.429,1.495 5.236,1.613c4.262,0.279 6.877,-0.819 8.296,-1.716c0.131,-0.082 0.225,-0.138 0.356,-0.257c-0.879,-0.376 -1.743,-0.754 -2.616,-1.139c-2.481,-1.094 -7.505,-3.268 -7.62,-3.313c-0.166,-0.074 -0.318,-0.148 -0.457,-0.224c-2.672,-1.16 -5.274,-2.451 -7.818,-3.519Z" style="fill:#ff5e7d;"/><path d="M44.144,58.867c0.586,2.69 2.211,5.237 4.662,6.569c2.092,1.11 3.561,1.514 5.95,1.309c1.194,-0.101 2.223,-0.292 3.602,-1.237c0.185,1.372 2.302,1.526 3.196,1.485c0.969,-0.045 2.815,-0.189 2.886,-2.519c0.065,-2.122 0.091,-4.564 0.103,-6.792c-6.625,1.716 -13.562,2.047 -20.399,1.185Z" style="fill:#ff5e7d;"/><path d="M26.54,54.681c0.602,6.152 0.879,12.343 0.22,18.494c-0.28,2.365 -1.436,5.506 -4.276,5.503c-2.607,0.333 -4.826,-2.089 -5.98,-3.982c-1.547,-2.538 -1.826,-4.928 -3.229,-6.028c-1.699,-1.329 -3.867,-1.629 -5.33,-1.093c-1.707,0.625 -3.477,2.528 -4.076,4.479c-0.703,2.325 0.311,4.968 1.409,7.496c2.189,5.038 5.705,9.206 11.144,10.728c4.221,1.133 8.912,1.405 13.021,-0.305c3.626,-1.379 6.33,-4.432 7.853,-7.935c2.553,-6.123 2.526,-12.907 2.529,-19.433c-0.03,-1.46 -0.077,-2.951 -0.137,-4.41c-4.495,-0.846 -8.913,-2.051 -13.148,-3.514Z" style="fill:#ff5e7d;"/><path d="M149.016,65.238c1.25,-0.121 2.937,0.183 3.507,1.434c0.048,0.105 0.088,0.217 0.12,0.336c0.58,2.21 -0.189,3.911 -1.557,4.793c-1.758,1.132 -3.334,1.598 -5.466,1.457c-1.474,-0.097 -3.021,-0.547 -4.118,-1.61c-1.339,-1.09 -1.796,-2.837 -1.861,-4.493c-0.026,-1.797 0.24,-3.781 0.577,-5.544c2.265,0.836 4.538,1.887 6.891,2.821c-0.079,0.404 -0.133,0.709 -0.251,1.369c0.516,-0.145 1.017,-0.328 1.516,-0.454c0.192,-0.049 0.41,-0.086 0.642,-0.109Z" style="fill:#ff5e7d;"/></g><g><path d="M147.09,64.528c0.007,-0.036 0.025,-0.13 0.033,-0.169c0.239,-1.216 0.681,-3.593 1.256,-5.718c1.521,0.245 2.971,0.525 4.383,0.78c1.861,0.336 3.271,-0.749 3.516,-1.957c0.318,-1.173 0.315,-2.718 -0.412,-3.733c-0.922,-1.286 -4.059,-1.824 -5.26,-2.055c0.471,-1.472 1.175,-2.689 1.568,-4.18c0.316,-1.195 -0.53,-2.444 -1.635,-2.993c-0.842,-0.418 -2.131,-0.497 -2.131,-0.497c-1.374,-0.172 -2.757,0.388 -3.365,1.942c-0.519,1.327 -1.158,3.499 -1.699,4.813c-0.93,-0.134 -1.627,-0.302 -3.085,-0.316c-1.443,-0.013 -3.224,1.244 -3.546,2.769c-0.245,1.159 0.119,2.267 1.044,3.166c0.7,0.68 2.233,1.14 3.379,1.208c-0.342,1.397 -0.724,2.901 -0.974,4.321c2.265,0.836 4.576,1.685 6.928,2.619Z" style="fill:#de8787;"/><path d="M135.437,60.218c0.261,-1.01 -0.091,-2.467 -1.487,-4.11c-0.112,-0.946 0.48,-6.235 0.923,-8.476c0.275,-1.102 0.38,-2.315 0.242,-3.252c-0.112,-0.762 -0.986,-1.604 -2.046,-1.76c-1.755,-0.258 -2.285,-0.071 -2.873,0.354c-0.539,0.392 -1.035,1.391 -1.069,2.274c-3.083,-0.727 -6.526,0.052 -8.86,2.232c-2.105,1.848 -3.114,4.754 -2.872,7.523c5.868,1.248 11.807,3.064 18.042,5.215Zm-10.097,-8.487c0.882,-0.438 2.323,-0.587 3.313,0.456c-0.003,0.928 -0.087,3.271 -0.183,3.965c-0.883,0.724 -2.609,0.84 -3.346,0.496c-0.894,-0.416 -1.388,-1.543 -1.347,-2.498c0.06,-1.4 0.713,-1.997 1.563,-2.419Z" style="fill:#de8787;"/><path d="M113.009,54.282c0.611,-4.583 1.631,-9.243 2.777,-13.721c0.27,-1.31 -0.578,-2.09 -1.907,-2.791c-0.683,-0.361 -1.906,-0.684 -3.273,-0.459c-0.991,0.163 -2.154,0.557 -2.668,2.763c-0.951,4.08 -1.767,8.196 -2.39,12.339c-0.028,0.241 -0.058,0.485 -0.087,0.727c2.522,0.24 5.022,0.708 7.548,1.142Z" style="fill:#de8787;"/><path d="M98.115,52.786c0.03,-1.839 0.074,-3.568 0.14,-4.615c0.017,-0.264 0.032,-1.397 0.046,-1.542c0.873,-0.06 2.453,0.048 4.448,-0.059c1.942,-0.105 2.09,-2.056 2.062,-3.223c-0.03,-1.246 -1.005,-2.641 -2.519,-2.713c-1.051,-0.05 -3,-0.043 -4.027,-0.094c-0.085,-2.044 1.119,-2.334 1.889,-2.447c1.413,-0.311 2.69,0.772 4.131,0.244c1.383,-0.507 1.77,-2.087 1.817,-3.298c0.058,-1.501 -0.541,-2.645 -1.749,-3.416c-0.76,-0.485 -2.787,-0.794 -4.28,-0.83c-2.362,-0.057 -5.932,1.207 -7.034,4.035c-0.643,1.65 -0.936,5.709 -0.936,5.709c0,-0 -1.011,0.014 -1.419,-0.014c-1.814,-0.122 -3.081,1.386 -3.136,3.049c-0.042,1.258 0.439,2.905 2.231,3.15c0.674,0.092 1.665,0.06 1.665,0.06c0,-0 -0.072,2.897 -0.158,6.191c2.297,-0.131 4.57,-0.225 6.829,-0.187Z" style="fill:#de8787;"/><path d="M86.855,53.337c0.176,-0.827 0.183,-1.861 0.02,-2.689c-0.325,-1.644 -2.036,-4.22 -5.431,-5.224c-1.265,-0.375 -2.807,-0.368 -3.704,-0.328c-3.438,0.153 -6.73,2.108 -8.3,4.755c-1.295,2.182 -2.106,4.922 -1.931,7.519c6.811,-1.964 13.159,-3.39 19.346,-4.033Zm-8.099,-2.276c0.303,0.002 1.071,0.104 1.757,0.509c0.352,0.207 0.774,0.692 0.358,1.05c-1.137,0.833 -2.098,1.005 -3.462,1.154c-0.896,0.097 -2.11,0.045 -2.86,-0.21c0.21,-0.768 0.788,-1.258 1.295,-1.68c0.818,-0.609 1.908,-0.83 2.912,-0.823Z" style="fill:#de8787;"/><path d="M165.668,62.083c-0.999,-0.093 -1.458,0.034 -2.326,0.57c-0.541,0.377 -1.034,0.832 -1.434,1.563c0.773,0.302 1.931,0.431 2.832,0.454c1.058,0.028 2.079,-0.129 2.901,-0.853c0.412,-0.362 0.067,-0.84 -0.266,-1.076c-0.649,-0.462 -1.406,-0.63 -1.707,-0.658Zm5.3,12.684c-2.329,-0.993 -13.385,-5.824 -15.824,-6.849c-0.055,-2.715 0.958,-5.574 2.553,-7.803c1.792,-2.502 4.679,-4.205 8.117,-4.062c0.897,0.037 2.446,0.13 3.662,0.644c4.119,1.741 6.116,6.047 5.03,8.743c-0.607,1.509 -2.591,2.966 -4.066,3.562c-3.211,1.366 -5.479,1.305 -8.821,0.624c0.354,0.747 1.219,1.587 2.685,1.981c1.446,0.389 5.565,0.69 6.345,-0.577c0.546,-0.885 2.185,-1.004 3.183,-0.267c0.676,0.62 1.164,1.425 1.216,2.12c0.078,1.06 -0.485,2.252 -1.56,3.034c-0.879,-0.376 -1.642,-0.776 -2.52,-1.15Z" style="fill:#de8787;"/><path d="M64.54,58.221c0.034,-6.192 -0.027,-12.933 0.41,-18.8c0.113,-1.517 -0.123,-2.872 -1.514,-3.536c-1.21,-0.577 -2.559,-0.712 -3.533,-0.264c-0.974,0.447 -2.167,1.095 -2.311,2.947c-0.158,2.029 -0.246,4.722 -0.322,6.756c-3.632,-0.789 -7.706,-0.465 -10.292,2.282c-2.48,2.443 -3.291,6.083 -3.06,9.462c0.025,0.624 0.118,1.301 0.252,1.915c6.836,0.862 13.744,0.954 20.37,-0.762Zm-9.564,-6.479c0.783,0.061 1.649,0.455 2.137,1.049c-0.048,1.329 -0.05,3.922 -0.161,5.234c-0.64,0.823 -2.186,1.216 -3.468,0.995c-1.419,-0.16 -2.364,-1.463 -2.388,-2.892c-0.027,-1.656 0.486,-3.614 2.206,-4.14c0.473,-0.191 1.142,-0.287 1.674,-0.246Z" style="fill:#de8787;"/><path d="M39.699,58.454c-0.197,-4.759 -0.562,-9.74 -1.073,-14.475c-0.17,-1.575 -1.819,-3.217 -3.876,-3.043c-0,0 -4.511,0.544 -6.721,1.023c-2.661,0.887 -2.87,4.03 -2.208,6.328c0.262,2.124 0.513,4.291 0.723,6.428c4.234,1.463 8.66,2.893 13.155,3.739Z" style="fill:#de8787;"/></g></g></g></g></g><defs><linearGradient id="_Linear1" x1="0" y1="0" x2="1" y2="0" gradientUnits="userSpaceOnUse" gradientTransform="matrix(-4.96962,17.5893,-17.5893,-4.96962,123.243,14.1322)"><stop offset="0" style="stop-color:#fbdc7c;stop-opacity:1"/><stop offset="0.36" style="stop-color:#fbdc7c;stop-opacity:1"/><stop offset="0.5" style="stop-color:#f57e28;stop-opacity:1"/><stop offset="1" style="stop-color:#f57e28;stop-opacity:1"/></linearGradient></defs></svg>