<svg width="568" height="302" viewBox="0 0 568 302" fill="none" xmlns="http://www.w3.org/2000/svg">
<path fill-rule="evenodd" clip-rule="evenodd" d="M331.637 34.4637C331.678 34.139 331.732 33.811 331.801 33.4831L331.804 33.4674C333.772 24.087 338.973 15.3341 346.716 10.7653C350.286 8.66222 354.441 7.23073 359.275 7.02263C360.627 5.80239 362.093 4.71774 363.66 3.79074C369.609 0.281381 377.223 -1.41812 386.932 1.45432C387.036 1.48585 387.137 1.51738 387.241 1.54891L423.589 13.127C429.387 9.26761 435.393 8.1798 441.155 9.53246C441.569 9.63021 441.98 9.74372 442.384 9.87299L511.82 32.2944C511.842 32.3007 511.865 32.307 511.887 32.3165C521.504 35.4695 526.796 41.1924 529.686 47.4543C533.427 55.5703 532.741 65.657 529.058 74.454L496.137 156.869C494.4 161.217 490.896 164.376 486.748 165.808L478.894 186.28C476.587 192.3 469.969 195.468 463.82 193.501L323.745 148.677C318.064 146.861 314.592 141.233 315.41 135.434C312.03 131.78 310.485 126.587 311.667 121.422C311.667 121.422 328.019 49.9925 331.286 35.7249C331.387 35.2772 331.504 34.8579 331.637 34.4637Z" fill="#F4EDED"/>
<path fill-rule="evenodd" clip-rule="evenodd" d="M480.694 154.375L392.179 128.078C390.375 127.542 389.345 125.65 389.882 123.847L415.315 38.2222C415.514 37.5474 415.918 36.9515 416.471 36.5164C420.831 33.089 424.54 28.0788 428.123 24.9352C431.507 21.9681 434.947 20.5461 438.372 21.3501C438.46 21.3722 438.552 21.3974 438.64 21.4258L508.076 43.8441C508.08 43.8472 508.086 43.8472 508.089 43.8504C513.713 45.6918 516.948 48.8701 518.635 52.5308C521.039 57.7428 520.18 64.216 517.798 69.86L484.836 152.372C484.182 154.009 482.385 154.876 480.694 154.375Z" fill="#550000"/>
<path fill-rule="evenodd" clip-rule="evenodd" d="M479.652 146.962L511.473 67.306C511.482 67.2839 511.492 67.265 511.501 67.2429C513.138 63.371 514.085 58.9535 512.439 55.378C511.422 53.1771 509.346 51.4303 505.966 50.3205C505.966 50.3205 436.707 27.959 436.704 27.9558C436.081 27.8486 435.487 28.0851 434.875 28.413C434.126 28.8166 433.383 29.3873 432.625 30.0526C429.2 33.0543 425.646 37.7051 421.558 41.1608L397.392 122.522L479.652 146.962Z" fill="#DE8787"/>
<path fill-rule="evenodd" clip-rule="evenodd" d="M356.188 47.1107C356.188 47.1107 360.662 28.9396 360.658 28.9585C361.919 22.9677 364.905 17.1629 369.852 14.2431C373.327 12.1905 377.801 11.4148 383.475 13.0954C383.497 13.1017 383.519 13.108 383.542 13.1143L427.706 27.1833C427.775 27.2054 427.845 27.2306 427.914 27.2558C431.188 28.5391 433.206 31.6638 434.296 36.0276C435.45 40.6469 435.642 46.871 437.269 52.165C437.481 52.8461 437.471 53.5744 437.244 54.2492L431.892 70.1185C431.304 71.8653 429.428 72.827 427.662 72.2878L358.501 51.1813C356.769 50.6515 355.755 48.8669 356.188 47.1107Z" fill="#550000"/>
<path fill-rule="evenodd" clip-rule="evenodd" d="M363.581 45.6098L426.486 64.8088L430.439 53.0825C429.052 47.9241 428.777 42.0847 427.674 37.6735C427.431 36.6992 427.147 35.8069 426.761 35.0502C426.442 34.4259 426.085 33.8899 425.498 33.625C425.498 33.625 381.504 19.6128 381.482 19.6065C378.092 18.6164 375.403 18.875 373.324 20.1047C369.928 22.1069 368.187 26.2784 367.328 30.39C367.321 30.431 367.312 30.4688 367.303 30.5098L363.581 45.6098Z" fill="#FFCCAA"/>
<path fill-rule="evenodd" clip-rule="evenodd" d="M323.527 124.124C323.527 124.124 343.715 35.9425 343.709 35.9646C344.966 29.9611 347.952 24.1406 352.909 21.2177C356.384 19.1651 360.858 18.3894 366.532 20.07C366.554 20.0763 366.576 20.0826 366.598 20.0889L410.763 34.1579C410.832 34.1799 410.902 34.2052 410.971 34.2304C414.244 35.5168 416.263 38.6384 417.353 43.0022C418.506 47.6214 418.699 53.8456 420.329 59.1396C420.538 59.8206 420.528 60.5458 420.301 61.2206L391.977 145.559C391.386 147.321 389.488 148.283 387.712 147.722L325.82 128.129C324.127 127.593 323.132 125.852 323.527 124.124Z" fill="#550000"/>
<path fill-rule="evenodd" clip-rule="evenodd" d="M330.875 122.585L386.575 140.217L413.495 60.0603C412.108 54.8987 411.833 49.0592 410.731 44.6481C410.488 43.6738 410.203 42.7815 409.818 42.0248C409.499 41.4005 409.142 40.8644 408.554 40.5996C408.554 40.5996 364.56 26.5874 364.538 26.5811C361.148 25.591 358.46 25.8496 356.381 27.0793C352.984 29.0814 351.244 33.2529 350.384 37.3677C350.381 37.3866 350.375 37.4087 350.372 37.4308L330.875 122.585Z" fill="#FFCCAA"/>
<path d="M426.923 40.5176C422.263 39.1744 418.933 41.3815 415.896 43.2324C413.442 44.7301 410.21 46.2246 407.657 47.8295L368.156 36.0213C364.206 34.5678 359.761 34.5741 355.929 36.5069C352.094 38.4397 348.839 42.7941 347.642 47.9998L327.457 137.118L467.533 181.942L503.834 87.2901C503.875 87.2176 503.909 87.1419 503.944 87.0725C505.868 81.2457 505.938 75.6112 503.334 71.0802C500.728 66.5461 495.676 63.1976 490.748 61.5075L490.71 61.4949L427.077 40.5649C427.027 40.546 426.976 40.5302 426.923 40.5144V40.5176Z" fill="#272727"/>
<path d="M331.905 133.981L352.684 49.1412C354.349 41.9049 362.188 39.332 366.374 40.8707L409.202 53.6469C416.222 49.5574 421.817 44.4022 425.469 45.4616L489.095 66.3695C496.975 69.0654 502.096 76.1661 499.028 85.4645L464.797 176.09L331.905 133.981Z" fill="url(#paint0_linear_17_2)"/>
<path d="M431.614 54.2586L484.11 71.8843C490.163 73.7919 496.605 79.584 493.575 88.9108C484.066 116.929 471.077 136.541 468.433 141.148C468.433 141.148 436.303 157.373 401.449 146.76C363.502 133.921 351.945 104.591 351.945 104.591L356.747 54.1073C358.396 44.2035 366.462 46.5809 370.964 48.0692L409.616 59.8679C410.387 60.2873 423.394 51.5533 426.42 52.5938L431.614 54.2586Z" fill="#FCBC5B"/>
<path fill-rule="evenodd" clip-rule="evenodd" d="M448.365 107.735C452.358 108.98 454.801 112.546 453.815 115.696C452.829 118.846 448.785 120.391 444.792 119.145C440.798 117.9 438.356 114.334 439.342 111.184C440.328 108.037 444.372 106.489 448.365 107.735Z" fill="#FF5E7D"/>
<path fill-rule="evenodd" clip-rule="evenodd" d="M380.098 85.2595C384.091 86.505 386.533 90.0743 385.548 93.221C384.562 96.3709 380.521 97.9159 376.528 96.6736C372.534 95.4282 370.092 91.8589 371.078 88.7121C372.064 85.5622 376.105 84.0172 380.098 85.2595Z" fill="#FF5E7D"/>
<path fill-rule="evenodd" clip-rule="evenodd" d="M393.288 64.093C399.601 66.0605 403.088 72.8838 401.076 79.3223C399.06 85.7577 392.299 89.3869 385.99 87.4194C379.678 85.4519 376.187 78.6286 378.202 72.1901C380.218 65.7547 386.976 62.1255 393.288 64.093Z" fill="#272727"/>
<path fill-rule="evenodd" clip-rule="evenodd" d="M392.41 66.9686C394.189 67.5236 395.184 69.4154 394.628 71.1937C394.072 72.9689 392.176 73.959 390.394 73.404C388.616 72.8522 387.62 70.9573 388.176 69.1821C388.732 67.4069 390.631 66.4137 392.41 66.9686Z" fill="#F4EDED"/>
<path fill-rule="evenodd" clip-rule="evenodd" d="M386.518 72.2595C387.791 72.6567 388.499 74.0094 388.104 75.2769C387.706 76.5476 386.35 77.2539 385.08 76.8598C383.81 76.4625 383.099 75.1098 383.497 73.8423C383.892 72.5716 385.248 71.8653 386.518 72.2595Z" fill="#F4EDED"/>
<path fill-rule="evenodd" clip-rule="evenodd" d="M452.693 82.4848C459.006 84.4523 462.494 91.2756 460.478 97.7141C458.465 104.15 451.704 107.779 445.392 105.811C439.08 103.844 435.592 97.0204 437.607 90.5819C439.62 84.1465 446.381 80.5173 452.693 82.4848Z" fill="#272727"/>
<path fill-rule="evenodd" clip-rule="evenodd" d="M451.815 85.3604C453.594 85.9154 454.586 87.8072 454.03 89.5855C453.474 91.3607 451.578 92.3508 449.799 91.799C448.021 91.244 447.025 89.3491 447.581 87.5739C448.138 85.7987 450.033 84.8055 451.815 85.3604Z" fill="#F4EDED"/>
<path fill-rule="evenodd" clip-rule="evenodd" d="M445.923 90.6513C447.193 91.0485 447.904 92.4012 447.506 93.6687C447.111 94.9394 445.755 95.6457 444.485 95.2516C443.212 94.8543 442.501 93.5016 442.899 92.2341C443.297 90.9634 444.653 90.2571 445.923 90.6513Z" fill="#F4EDED"/>
<path fill-rule="evenodd" clip-rule="evenodd" d="M408.51 88.8004C408.639 87.6716 409.663 86.8581 410.794 86.9874C411.928 87.1167 412.74 88.1383 412.611 89.2671C412.611 89.2671 412.146 93.1264 416.434 94.4444C420.945 95.8317 422.856 92.5494 422.856 92.5494C423.359 91.5278 424.597 91.1053 425.621 91.6066C426.641 92.108 427.065 93.344 426.562 94.3656C426.562 94.3656 423.327 101.227 415.179 98.72C407.458 96.3457 408.51 88.8004 408.51 88.8004Z" fill="#272727"/>
<path fill-rule="evenodd" clip-rule="evenodd" d="M298.534 60.2664C298.512 60.6069 298.045 60.9222 297.586 61.1398C292.942 63.3659 289.865 67.55 287.669 73.175C287.492 73.6259 287.331 74.2187 286.851 74.2029C286.38 74.1872 286.244 73.5534 286.099 73.153C284.425 68.6062 280.599 63.637 275.863 61.4267C275.345 61.1839 274.89 60.9002 274.842 60.4587C274.801 60.052 275.149 59.6988 275.604 59.4813C281.117 56.8642 284.169 52.8788 285.894 47.96C286.083 47.424 286.393 46.5254 287.053 46.5285C287.644 46.5285 287.998 47.6384 288.222 48.1902C290.427 53.5819 293.321 57.1512 297.925 59.516C298.269 59.6925 298.563 59.8439 298.534 60.2664Z" fill="#FFCCAA"/>
<path fill-rule="evenodd" clip-rule="evenodd" d="M549.854 139.28C549.832 138.987 549.427 138.713 549.029 138.524C544.991 136.588 542.315 132.949 540.407 128.059C540.256 127.668 540.113 127.15 539.696 127.166C539.286 127.179 539.169 127.727 539.042 128.077C537.586 132.031 534.262 136.351 530.143 138.274C529.694 138.483 529.296 138.732 529.258 139.116C529.22 139.469 529.523 139.775 529.918 139.964C534.711 142.238 537.365 145.703 538.866 149.979C539.03 150.445 539.298 151.227 539.87 151.227C540.385 151.224 540.692 150.259 540.887 149.78C542.805 145.091 545.323 141.989 549.323 139.933C549.62 139.782 549.879 139.649 549.854 139.28Z" fill="#FFCCAA"/>
<path fill-rule="evenodd" clip-rule="evenodd" d="M529.256 109.969C529.272 109.733 529.6 109.512 529.916 109.358C533.167 107.8 535.319 104.874 536.854 100.939C536.977 100.627 537.091 100.211 537.429 100.223C537.758 100.233 537.849 100.674 537.954 100.955C539.123 104.136 541.799 107.611 545.113 109.159C545.476 109.326 545.792 109.525 545.827 109.834C545.855 110.117 545.612 110.367 545.293 110.518C541.438 112.347 539.303 115.134 538.096 118.574C537.963 118.949 537.748 119.58 537.287 119.577C536.873 119.577 536.627 118.801 536.469 118.413C534.927 114.642 532.902 112.145 529.682 110.493C529.442 110.37 529.237 110.262 529.256 109.969Z" fill="#FFCCAA"/>
<path fill-rule="evenodd" clip-rule="evenodd" d="M292.756 22.9562C292.775 22.6945 293.138 22.4517 293.489 22.2815C297.081 20.5599 299.463 17.3249 301.16 12.9736C301.296 12.6268 301.419 12.1664 301.795 12.1791C302.158 12.1917 302.259 12.6804 302.376 12.9925C303.668 16.5082 306.629 20.3518 310.29 22.0608C310.691 22.2468 311.042 22.4675 311.08 22.8112C311.112 23.1233 310.843 23.3976 310.489 23.5648C306.227 25.589 303.867 28.6696 302.531 32.4753C302.386 32.8884 302.145 33.5852 301.637 33.582C301.179 33.582 300.907 32.7213 300.733 32.2956C299.027 28.1272 296.787 25.3652 293.227 23.5364C292.964 23.4008 292.734 23.2841 292.756 22.9562Z" fill="#FFCCAA"/>
<path fill-rule="evenodd" clip-rule="evenodd" d="M307.798 44.9299C307.81 44.7313 308.085 44.5452 308.354 44.416C311.096 43.1043 312.909 40.6354 314.208 37.3153C314.309 37.0504 314.404 36.7004 314.688 36.7099C314.966 36.7193 315.045 37.0914 315.134 37.331C316.119 40.0111 318.375 42.9435 321.171 44.2488C321.477 44.3907 321.746 44.5578 321.771 44.8195C321.797 45.0592 321.591 45.2673 321.323 45.3934C318.072 46.9384 316.271 49.2906 315.254 52.1914C315.143 52.5067 314.96 53.0396 314.571 53.0364C314.22 53.0333 314.012 52.3806 313.879 52.0558C312.578 48.8744 310.872 46.7681 308.155 45.3745C307.956 45.2704 307.779 45.179 307.798 44.9299Z" fill="#FFCCAA"/>
<path fill-rule="evenodd" clip-rule="evenodd" d="M126.911 273.835C120.428 284.18 111.048 292.681 99.4852 297.12C83.8686 303.549 66.0752 302.862 50.0447 298.567C50.0005 298.555 49.9562 298.542 49.9089 298.529C28.7476 292.621 14.6854 276.843 6.16779 257.281C1.39718 246.324 -1.86641 234.677 1.18551 224.596C1.19183 224.578 1.19815 224.559 1.20446 224.54C4.25639 214.623 13.4532 205.107 22.1477 201.932C30.2135 198.984 42.279 200.056 51.6433 207.374C54.9638 209.966 57.5197 213.564 59.6143 218.164C61.1119 221.45 62.363 225.612 64.9757 229.887C65.8856 231.382 67.1178 233.056 68.6185 234.469C69.3672 235.172 69.9138 236.373 70.9406 236.241C71.0354 236.231 71.127 236.219 71.2218 236.209C71.702 235.005 72.8141 232.091 73.0289 230.439C75.6796 205.647 73.2185 180.64 70.1887 155.986C66.824 142.699 70.7826 126.082 85.9696 121.034C86.4214 120.883 86.8795 120.76 87.3407 120.659C94.7241 119.06 109.788 117.228 109.788 117.228C109.943 117.213 110.097 117.197 110.252 117.181C124.441 115.983 135.543 127.627 136.715 138.471C136.971 140.848 137.217 143.225 137.451 145.606C138.418 144.395 139.457 143.232 140.569 142.125C148.303 134.034 158.909 130.333 169.901 129.882C170.04 127.038 170.201 124.266 170.393 121.797C171.363 109.374 178.788 104.572 185.337 101.573C191.482 98.7578 200.034 98.8524 207.674 102.491C217.43 107.142 220.712 115.869 219.922 126.486C219.572 131.168 219.325 135.97 219.152 140.845C226.661 134.756 236.465 130.711 246.603 130.263C250.489 130.093 257.149 130.206 262.627 131.824C263.711 132.142 264.757 132.499 265.768 132.883C267.73 125.357 273.265 119.104 280.812 116.781C281.428 112.855 282.244 108.803 283.242 106.249C288.777 92.0764 306.198 84.8685 318.061 85.1555C325.198 85.3289 334.73 87.5234 338.36 89.8378C344.473 93.7318 348.274 99.0447 349.528 105.78C357.057 104.711 363.729 106.678 367.514 108.671C377.902 114.145 382.404 121.539 380.297 131.758C380.253 131.963 380.205 132.164 380.155 132.366C379.817 133.681 379.485 134.996 379.156 136.314C385.832 132.259 393.61 130.083 401.43 129.919C402.618 128.318 403.907 126.984 405.183 126.063C409.047 123.267 412.355 120.889 423.905 122.582C433.424 123.979 440.486 132.398 441.493 139.23C441.85 141.643 441.901 144.442 441.664 147.337C442.738 147.183 443.8 147.107 444.83 147.116C445.054 147.119 445.275 147.123 445.487 147.126C446.204 144.991 446.902 142.938 447.547 141.299C451.998 129.935 462.02 125.657 472.088 126.915L471.438 126.855C472.578 126.968 478.811 127.656 483.048 129.756C491.929 134.157 497.628 144.739 495.095 154.33C495 154.684 494.902 155.03 494.798 155.377C495.013 155.469 495.227 155.566 495.436 155.664C499.515 157.566 502.725 160.183 504.728 162.97C505.852 164.54 506.746 166.309 507.419 168.191C513.021 165.779 519.279 164.531 525.99 164.811C529.955 164.975 536.766 165.6 542.144 167.867C553.637 172.716 561.476 181.951 564.9 191.19C567.693 198.729 567.602 206.331 565.131 212.46C564.461 214.116 563.488 215.784 562.297 217.411C565.542 221.387 567.466 226.075 567.76 230.051C568.353 238.142 565.63 246.1 556.13 252.091C550.279 255.78 539.581 260.658 522.019 259.507C514.499 259.015 506.901 256.609 500.222 252.949C493.79 249.714 488.773 244.962 485.187 239.205C477.406 244.029 470.278 245.952 460.775 245.325C457.985 245.142 455.167 244.666 452.437 243.871C449.553 253.712 444.368 262.815 435.901 273.255C431.763 278.359 425.229 281.61 418.171 281.743C412.333 281.856 406.475 279.721 402.27 276.228C395.844 280.443 389.194 281.988 382.61 282.824C377.529 283.467 370.832 282.427 366.02 279.721C362.327 277.65 359.385 274.863 357.376 271.432C348.394 278.435 339.75 280.648 333.122 281.118C326.942 281.557 319.031 279.677 313.568 274.317C309.31 276.209 304.444 276.849 299.525 275.875C299.5 275.868 299.478 275.865 299.456 275.859C294.919 274.941 290.96 272.772 287.864 269.786C279.233 277.99 268.911 281.796 258.795 281.821C253.348 281.837 247.431 280.409 242.641 277.243C239.043 279.529 234.79 280.894 230.797 280.995C228.579 281.049 226.367 280.699 224.235 280.018C222.684 280.33 221.132 280.481 219.632 280.472C217.044 281.364 214.248 281.79 211.351 281.651C208.419 281.509 205.649 280.809 203.14 279.655C201.826 279.983 200.474 280.188 199.099 280.254C198.97 280.261 198.843 280.264 198.717 280.267C194.442 280.393 190.158 278.999 186.456 276.613C183.151 278.385 179.372 279.378 175.363 279.337L157.428 279.201C157.415 279.201 157.405 279.201 157.393 279.201C157.004 279.198 156.616 279.185 156.233 279.163C154.606 280.024 152.963 280.648 151.355 281.096C146.891 282.335 142.225 282.291 137.435 280.677C133.334 279.296 129.682 276.959 126.911 273.835Z" fill="#F4EDED"/>
<path fill-rule="evenodd" clip-rule="evenodd" d="M149.321 220.466C160.135 220.608 168.886 220.794 178.222 221.059C180.033 221.109 181.461 222.607 181.426 224.41C181.391 226.227 179.887 227.674 178.068 227.636C171.648 227.513 158.369 227.302 153.194 227.135C152.957 227.128 152.739 227.119 152.537 227.113C152.78 233.245 152.938 240.412 152.35 246.74C151.753 253.144 150.111 257.883 149.141 259.431C147.586 261.913 145.738 262.657 143.754 261.989C142.032 261.408 140.955 259.693 141.495 257.486C142.004 255.418 143.915 255.339 143.915 255.339C144.525 253.387 145.447 250.206 145.915 246.277C146.758 239.22 146.364 230.206 145.988 223.975C145.858 222.058 147.397 220.441 149.321 220.466ZM167.686 231.06C169.506 231.13 170.927 232.659 170.858 234.475L170.852 237.565L175.357 237.584C177.167 237.634 178.595 239.132 178.56 240.936C178.526 242.755 177.022 244.199 175.202 244.164L170.57 244.142L170.213 253.094L175.61 253.034C177.417 253.069 178.86 254.551 178.842 256.354C178.826 258.173 177.335 259.633 175.515 259.614L157.576 259.479C155.744 259.463 154.278 257.956 154.312 256.124C154.347 254.308 155.851 252.864 157.671 252.898L163.62 252.999L163.977 243.985L158.916 243.89C157.105 243.84 155.677 242.342 155.712 240.538C155.747 238.719 157.251 237.275 159.074 237.31L164.23 237.407L164.268 234.194C164.35 232.391 165.876 231.003 167.686 231.06ZM431.633 218.022C433.63 218.041 435.696 219.678 435.664 221.67C435.427 236.909 431.45 247.39 420.537 260.847C419.283 262.398 416.367 262.37 414.882 261.04C413.413 259.718 412.759 256.836 414.039 255.332C424.749 242.73 429.361 236.083 427.415 221.456C427.156 219.507 429.324 217.997 431.633 218.022ZM412.579 219.886C414.516 219.977 416.414 221.002 416.266 223.66C415.991 228.538 418.143 233.387 420.161 238.114C420.936 239.93 419.176 241.97 417.255 242.449C415.321 242.935 413.318 241.645 412.503 239.829C410.582 235.547 408.086 229.774 408.424 223.285C408.529 221.305 410.595 219.788 412.579 219.886ZM373.078 223.881C381.772 224.045 388.135 224.332 395.891 225.53C397.648 225.801 398.943 227.28 398.703 229.462C398.384 232.362 395.898 232.252 393.961 232.069C387.131 231.429 379.475 230.735 372.029 230.578C370.089 230.531 368.854 228.781 369.078 226.816C369.299 224.89 371.135 223.855 373.078 223.881ZM367.271 233.769C369.95 233.507 376.976 233.576 384.391 234.273C392.454 235.03 399.781 236.307 400.526 237.537C401.714 239.495 400.365 250.477 396.331 255.254C391.247 261.282 385.567 262.566 380.114 263.256C377.877 263.54 374.405 262.856 374.136 260.333C373.934 258.416 375.204 256.818 377.131 256.654C383.504 256.111 385.336 255.96 389.336 252.76C393.715 249.253 394.05 242.749 393.705 242.591C389.595 241.506 382.426 240.828 379.542 240.664C374.449 240.378 371.801 240.393 367.258 240.378C364.927 240.368 363.745 238.908 363.669 237.332C363.597 235.777 364.737 234.018 367.271 233.769ZM247.886 232.271C250.701 231.47 279.293 232.602 280.828 234.945C282.806 237.969 280.617 248.225 276.585 253.002C271.499 259.031 265.12 262.083 258.744 262.099C256.489 262.105 252.985 262.178 252.767 259.176C252.628 257.25 254.217 255.345 256.147 255.301C262.908 255.146 264.984 254.462 268.984 251.262C273.36 247.759 274.323 240.434 273.96 240.34C269.846 239.283 258.34 237.89 247.873 238.88C245.355 238.779 244.764 237.351 244.689 235.774C244.616 234.216 245.965 232.63 247.886 232.271ZM359.129 222.837C360.055 224.177 361.085 225.347 361.151 225.382C362.257 226.113 362.554 227.601 361.818 228.705C361.079 229.818 359.562 230.117 358.456 229.358C357.025 228.393 356.096 227.05 355.047 225.378C354.356 224.253 354.785 222.894 355.828 222.09C356.855 221.305 358.358 221.721 359.129 222.837ZM351.496 223.919C352.469 224.016 353.288 224.694 353.559 225.634C354.014 227.16 354.845 228.21 356.349 229.969C357.224 230.978 357.104 232.507 356.084 233.368C355.066 234.235 353.537 234.103 352.681 233.081C351.143 231.281 349.711 229.569 348.956 227.034C348.555 225.76 349.272 224.404 350.552 224.019C350.858 223.906 351.496 223.919 351.496 223.919ZM344.208 225.76C345.054 225.858 345.885 225.984 346.672 226.205C346.912 226.271 347.01 226.435 347.02 226.608C347.067 227.545 347.576 229.064 347.923 229.714C348.53 230.858 349.452 232.485 350.046 233.289C351.999 235.935 354.172 237.057 356.027 234.948C356.134 234.825 356.371 234.932 356.374 235.084C356.415 236.506 356.28 238.517 356.166 239.274C355.528 243.657 352.033 249.376 349.26 252.233C342.786 258.889 336.461 261.109 331.719 261.446C330.019 261.566 327.141 261.222 326.92 258.438C326.765 256.537 328.18 255.118 330.642 254.923C334.354 254.626 338.862 252.867 343.851 247.339C346.476 244.429 347.977 239.239 348.078 237.448C348.179 235.657 347.933 234.828 345.187 233.8C341.579 232.444 331.305 231.703 323.473 232.738C321.495 232.999 319.606 231.867 319.217 229.916C318.813 227.973 320.055 226.028 322.01 225.672C328.297 224.527 336.824 224.887 344.208 225.76ZM316.244 216.055C317.862 214.913 320.168 216.329 320.857 218.186C321.536 220.043 320.582 222.099 318.725 222.787C315.562 224.921 311.768 228.292 308.634 230.218C310.286 240.523 308.709 248.298 307.616 253.69C307.234 255.645 305.335 256.918 303.38 256.528C301.424 256.133 300.163 254.226 300.571 252.274C301.557 247.418 302.861 240.22 302.305 233.343C299.367 235.194 296.625 236.868 290.79 239.905C289.254 241.169 286.689 240.592 285.422 239.06C284.146 237.537 284.604 234.447 286.433 233.665C301.686 227.141 308.466 221.547 316.244 216.055ZM252.726 222.222C261.812 222.14 268.753 222.61 277.802 224.064C279.542 224.344 281.002 226.4 280.541 228.1C280.07 229.808 278.452 230.956 276.699 230.669C268.403 229.317 259.029 229.291 252.258 229.348C250.413 229.364 248.107 228.421 248.037 225.902C247.974 223.461 250.957 222.238 252.726 222.222ZM219.114 214.409C220.681 214.27 222.219 215.087 222.456 216.389L222.861 218.634L232.004 218.666C233.274 218.675 234.316 219.675 234.38 220.942L234.566 224.902C234.623 226.208 233.201 227.333 231.896 227.396C230.576 227.475 228.601 226.592 228.522 225.278L228.519 223.502L220.191 223.278L212.804 223.263L212.789 225.41C212.83 226.737 211.038 227.92 209.705 227.945C208.375 227.983 206.988 226.936 206.957 225.605L206.83 220.926C206.792 219.577 208.024 218.647 209.38 218.65L216.592 218.574L216.343 217.203C216.112 215.903 217.474 214.554 219.114 214.409ZM197.643 218.117C198.821 218.735 199.595 220.422 198.97 221.592L195.829 227.239L196.799 228.736L199.816 224.508C200.575 223.417 202.306 223.433 203.393 224.19C204.47 224.956 204.723 226.454 203.955 227.529L198.641 235.405L202.205 235.118L201.674 233.542C201.377 232.252 202.192 230.959 203.488 230.672C204.783 230.379 206.069 231.19 206.363 232.482L207.519 237.505L212.299 227.649C212.874 226.463 214.296 225.965 215.49 226.529C216.567 227.116 217.025 228.424 216.551 229.556L233.429 229.364C234.746 229.361 235.82 230.42 235.836 231.735C235.855 233.066 234.721 234.576 233.391 234.589L227.919 234.655L226.709 237.319L230.301 237.448C231.558 237.511 232.553 238.53 232.585 239.788L233.084 258.813C233.122 260.128 231.621 261.244 230.304 261.279C228.974 261.317 227.536 260.22 227.508 258.889L227.476 257.612L222.583 257.801C222.658 260.005 220.984 260.822 219.708 260.746C218.393 260.671 216.795 260.065 216.88 258.057V239.372C216.877 238.01 217.919 237.001 219.287 237.067L221.117 237.089L222.232 234.702L216.005 234.762C215.992 234.869 215.964 235.222 215.951 235.452C215.739 239.605 214.801 259.674 214.801 259.674C214.738 260.989 213.62 262.014 212.302 261.951C210.969 261.888 209.945 260.753 210.021 259.422L210.896 241.55L209.775 243.37C209.168 244.035 208.603 244.451 207.563 244.164C206.527 243.865 205.851 242.809 205.971 242.023C205.288 242.427 203.557 241.954 203.443 240.576L200.29 240.8L200.644 258.088C200.682 259.403 199.463 260.488 198.145 260.551C196.825 260.592 195.349 259.561 195.302 258.246L194.847 241.043L190.234 241.386C188.904 241.478 187.786 240.176 187.703 238.845C187.631 237.54 188.478 236.039 189.782 235.944L191.567 235.689L193.675 233.428L187.081 225.568C186.222 224.568 186.8 222.733 187.798 221.872C188.806 220.983 190.664 221.046 191.533 222.061L192.3 222.938L194.392 219.085C195.115 217.748 196.499 217.515 197.643 218.117ZM222.583 241.872V245.18L227.132 245.34L227.04 242.096L222.583 241.872ZM222.583 250.013V252.983L227.35 252.791L227.258 250.171L222.583 250.013ZM203.677 244.571C204.969 244.3 206.508 245.12 206.786 246.412L207.598 250.124C207.873 251.416 206.783 252.678 205.487 252.965C204.195 253.233 202.691 252.413 202.413 251.12L202.069 247.503C201.794 246.211 202.382 244.858 203.677 244.571ZM192.582 245.448C193.867 245.766 194.913 247.097 194.594 248.38L193.065 254.588C192.758 255.884 191.188 256.65 189.893 256.332C188.607 256.01 187.625 254.617 187.944 253.33L189.567 247.475C190.206 245.252 191.773 245.246 192.582 245.448Z" fill="#FF5E7D"/>
<path fill-rule="evenodd" clip-rule="evenodd" d="M370.869 173.142C371.062 175.339 371.523 177.767 372.228 179.855C374.898 187.989 381.292 194.406 390.644 196.354C394.1 197.073 399.803 197.631 406.068 195.226C407.966 194.494 409.922 193.491 411.881 192.136C413.998 195.967 417.204 197.133 421.334 196.509C423.624 196.162 427.308 193.488 428.016 189.273C408.317 182.49 389.405 177.077 370.869 173.142Z" fill="#FF5E7D"/>
<path fill-rule="evenodd" clip-rule="evenodd" d="M333.216 167.327C331.921 178.089 330.506 189.254 332.698 200.028C335.57 214.138 348.735 215.349 352.877 215.598C357.607 215.645 361.36 214.942 364.63 212.895C369.773 209.679 374.076 205.495 374.083 200.397C374.089 195.522 371.871 190.288 368.503 187.97C364.503 185.212 360.779 185.524 357.047 190.001C355.525 189.503 355.6 185.13 355.806 182.598C356.131 178.634 356.615 174.308 357.139 170.373C349.158 169.002 341.181 168.084 333.216 167.327Z" fill="#FF5E7D"/>
<path fill-rule="evenodd" clip-rule="evenodd" d="M288.426 166.158C288.158 176.487 287.826 188.916 287.656 195.349C287.453 202.948 293.308 206.523 297.781 206.63C302.688 206.747 309.275 206.214 309.692 197.704C309.762 196.238 309.758 179.59 309.983 166.066C302.849 165.946 295.687 165.745 288.426 166.158Z" fill="#FF5E7D"/>
<path fill-rule="evenodd" clip-rule="evenodd" d="M213.259 179.057C213.212 181.056 213.455 183.802 213.819 185.675C215.711 195.273 222.949 203.395 232.016 206.936C237.318 209.307 243.216 210.707 248.935 210.591C262.428 210.316 269.041 206.57 273.094 203.152C276.658 200.151 277.29 196.231 276.977 193.019C276.699 190.168 275.663 188.579 273.366 186.816C270.026 184.77 265.382 187.315 262.548 188.97C256.394 192.558 249.143 192.902 242.212 190.833C239.277 189.821 236.291 188.242 234.673 185.48C245.377 186.716 253.942 186.779 263.679 181.617C268.159 179.35 272.222 175.141 273.849 170.288C274.118 169.487 274.431 168.245 274.541 167.381C254.994 169.408 234.778 172.867 213.259 179.057Z" fill="#FF5E7D"/>
<path fill-rule="evenodd" clip-rule="evenodd" d="M490.154 213.11C490.125 214.368 490.21 216.197 490.343 217.461C491.405 227.185 496.027 235.78 504.759 240.084C509.836 242.9 515.593 244.798 521.302 245.17C534.767 246.05 543.028 242.588 547.511 239.76C547.925 239.501 548.222 239.324 548.636 238.949C545.859 237.764 543.129 236.572 540.371 235.358C532.533 231.908 516.66 225.054 516.297 224.912C515.773 224.678 515.292 224.445 514.853 224.205C506.412 220.548 498.191 216.477 490.154 213.11Z" fill="#FF5E7D"/>
<path fill-rule="evenodd" clip-rule="evenodd" d="M139.467 185.612C141.318 194.094 146.452 202.125 154.196 206.324C160.805 209.824 165.446 211.098 172.994 210.452C176.766 210.133 180.017 209.531 184.374 206.551C184.958 210.877 191.646 211.363 194.471 211.234C197.532 211.092 203.364 210.638 203.589 203.291C203.794 196.6 203.876 188.901 203.914 181.876C182.983 187.286 161.067 188.33 139.467 185.612Z" fill="#FF5E7D"/>
<path fill-rule="evenodd" clip-rule="evenodd" d="M83.8497 172.413C85.7516 191.811 86.6267 211.332 84.5447 230.726C83.6601 238.183 80.0079 248.087 71.0354 248.077C62.799 249.127 55.7884 241.491 52.1425 235.522C47.255 227.519 46.3736 219.984 41.941 216.515C36.5733 212.325 29.7238 211.379 25.1017 213.069C19.7087 215.039 14.1167 221.04 12.2243 227.191C10.0032 234.522 13.2068 242.856 16.6758 250.827C23.5916 266.712 34.6998 279.854 51.8835 284.653C65.219 288.225 80.0395 289.083 93.0212 283.691C104.477 279.343 113.02 269.717 117.832 258.672C125.897 239.365 125.812 217.975 125.822 197.398C125.727 192.795 125.578 188.093 125.389 183.493C111.187 180.826 97.2295 177.026 83.8497 172.413Z" fill="#FF5E7D"/>
<path fill-rule="evenodd" clip-rule="evenodd" d="M470.793 205.7C474.742 205.319 480.072 206.277 481.873 210.222C482.024 210.553 482.151 210.906 482.252 211.281C484.084 218.249 481.655 223.613 477.333 226.394C471.779 229.963 466.8 231.432 460.064 230.988C455.407 230.682 450.52 229.263 447.054 225.911C442.823 222.474 441.38 216.966 441.174 211.745C441.092 206.079 441.932 199.823 442.997 194.264C450.153 196.9 457.334 200.214 464.768 203.159C464.519 204.433 464.348 205.394 463.975 207.475C465.605 207.018 467.188 206.441 468.765 206.044C469.371 205.889 470.06 205.773 470.793 205.7Z" fill="#FF5E7D"/>
<path fill-rule="evenodd" clip-rule="evenodd" d="M464.708 203.461C464.73 203.348 464.787 203.052 464.813 202.929C465.568 199.095 466.964 191.6 468.781 184.899C473.586 185.672 478.167 186.555 482.628 187.359C488.508 188.418 492.962 184.997 493.736 181.188C494.741 177.49 494.731 172.618 492.435 169.418C489.522 165.363 479.611 163.667 475.816 162.938C477.305 158.297 479.529 154.46 480.77 149.759C481.769 145.991 479.096 142.052 475.605 140.321C472.945 139.003 468.872 138.754 468.872 138.754C464.531 138.212 460.162 139.978 458.241 144.878C456.601 149.062 454.583 155.91 452.873 160.053C449.935 159.631 447.733 159.101 443.127 159.057C438.568 159.016 432.941 162.979 431.924 167.788C431.15 171.442 432.3 174.936 435.222 177.77C437.434 179.914 442.277 181.365 445.898 181.579C444.817 185.984 443.61 190.726 442.82 195.204C449.976 197.84 457.277 200.517 464.708 203.461Z" fill="#DE8787"/>
<path fill-rule="evenodd" clip-rule="evenodd" d="M427.892 189.872C428.717 186.687 427.605 182.093 423.194 176.913C422.841 173.93 424.711 157.253 426.11 150.187C426.979 146.713 427.311 142.888 426.875 139.934C426.521 137.531 423.76 134.876 420.411 134.384C414.866 133.571 413.192 134.16 411.334 135.5C409.631 136.736 408.064 139.886 407.957 142.67C398.217 140.378 387.339 142.834 379.965 149.708C373.315 155.535 370.127 164.698 370.892 173.429C389.431 177.364 408.194 183.09 427.892 189.872ZM395.992 163.112C398.779 161.731 403.332 161.261 406.459 164.55C406.45 167.476 406.185 174.863 405.881 177.051C403.092 179.334 397.639 179.7 395.31 178.615C392.486 177.304 390.925 173.75 391.054 170.739C391.244 166.325 393.307 164.442 395.992 163.112Z" fill="#DE8787"/>
<path fill-rule="evenodd" clip-rule="evenodd" d="M357.035 171.155C358.965 156.705 362.188 142.011 365.808 127.892C366.661 123.762 363.982 121.302 359.783 119.092C357.625 117.954 353.762 116.935 349.443 117.645C346.312 118.159 342.638 119.401 341.014 126.357C338.009 139.221 335.431 152.199 333.463 165.262C333.374 166.022 333.28 166.791 333.188 167.554C341.156 168.311 349.054 169.787 357.035 171.155Z" fill="#DE8787"/>
<path fill-rule="evenodd" clip-rule="evenodd" d="M309.98 166.438C310.074 160.64 310.213 155.188 310.422 151.887C310.476 151.054 310.523 147.482 310.567 147.025C313.325 146.836 318.317 147.176 324.62 146.839C330.755 146.508 331.223 140.356 331.134 136.677C331.04 132.748 327.959 128.349 323.176 128.122C319.856 127.965 313.698 127.987 310.453 127.826C310.185 121.381 313.989 120.467 316.421 120.11C320.886 119.13 324.92 122.544 329.473 120.88C333.842 119.281 335.065 114.299 335.213 110.481C335.396 105.748 333.504 102.141 329.687 99.71C327.286 98.1808 320.882 97.2065 316.165 97.093C308.703 96.9132 297.424 100.899 293.943 109.816C291.911 115.018 290.986 127.816 290.986 127.816C290.986 127.816 287.791 127.861 286.502 127.772C280.771 127.388 276.769 132.142 276.595 137.386C276.462 141.352 277.982 146.546 283.643 147.318C285.773 147.608 288.904 147.507 288.904 147.507C288.904 147.507 288.676 156.642 288.404 167.028C295.661 166.615 302.843 166.318 309.98 166.438Z" fill="#DE8787"/>
<path fill-rule="evenodd" clip-rule="evenodd" d="M274.405 168.176C274.961 165.568 274.983 162.308 274.468 159.697C273.442 154.513 268.036 146.391 257.31 143.225C253.314 142.043 248.442 142.065 245.608 142.191C234.746 142.674 224.346 148.838 219.385 157.184C215.294 164.064 212.732 172.703 213.285 180.892C234.803 174.699 254.858 170.203 274.405 168.176ZM248.818 160.999C249.775 161.006 252.201 161.327 254.369 162.604C255.481 163.257 256.814 164.786 255.5 165.915C251.908 168.541 248.871 169.084 244.562 169.553C241.731 169.859 237.896 169.695 235.526 168.891C236.19 166.47 238.016 164.925 239.618 163.594C242.202 161.674 245.646 160.977 248.818 160.999Z" fill="#DE8787"/>
<path fill-rule="evenodd" clip-rule="evenodd" d="M523.402 195.752C520.246 195.459 518.796 195.859 516.054 197.55C514.345 198.738 512.787 200.173 511.523 202.478C513.965 203.43 517.624 203.837 520.471 203.909C523.813 203.998 527.039 203.502 529.636 201.22C530.937 200.078 529.847 198.571 528.795 197.827C526.745 196.37 524.353 195.841 523.402 195.752ZM540.147 235.746C532.789 232.615 497.859 217.382 490.153 214.15C489.98 205.59 493.18 196.575 498.219 189.547C503.881 181.658 513.002 176.288 523.864 176.739C526.698 176.856 531.591 177.149 535.433 178.77C548.446 184.259 554.756 197.836 551.325 206.337C549.407 211.095 543.139 215.689 538.479 217.568C528.334 221.875 521.169 221.683 510.61 219.536C511.729 221.891 514.461 224.54 519.093 225.782C523.661 227.009 536.675 227.958 539.139 223.963C540.864 221.172 546.042 220.797 549.195 223.121C551.331 225.076 552.873 227.614 553.037 229.805C553.283 233.148 551.505 236.906 548.108 239.372C545.331 238.186 542.921 236.925 540.147 235.746Z" fill="#DE8787"/>
<path fill-rule="evenodd" clip-rule="evenodd" d="M203.905 183.575C204.012 164.051 203.819 142.797 205.2 124.298C205.557 119.514 204.811 115.242 200.417 113.148C196.594 111.329 192.332 110.903 189.255 112.316C186.178 113.725 182.408 115.769 181.954 121.608C181.454 128.006 181.176 136.497 180.936 142.91C169.461 140.422 156.59 141.444 148.42 150.105C140.585 157.808 138.023 169.285 138.753 179.94C138.832 181.907 139.125 184.042 139.549 185.978C161.146 188.696 182.971 188.986 203.905 183.575ZM173.689 163.146C176.162 163.339 178.898 164.581 180.44 166.454C180.289 170.644 180.282 178.82 179.932 182.957C177.91 185.552 173.025 186.791 168.975 186.094C164.492 185.59 161.506 181.481 161.43 176.976C161.345 171.754 162.966 165.581 168.4 163.922C169.894 163.32 172.008 163.017 173.689 163.146Z" fill="#DE8787"/>
<path fill-rule="evenodd" clip-rule="evenodd" d="M125.423 184.31C124.801 169.304 123.648 153.599 122.033 138.669C121.496 133.703 116.287 128.526 109.788 129.074C109.788 129.074 95.5361 130.79 88.5539 132.3C80.1469 135.097 79.4866 145.007 81.5781 152.253C82.4059 158.95 83.1989 165.782 83.8623 172.52C97.239 177.133 111.222 181.642 125.423 184.31Z" fill="#DE8787"/>
<defs>
<linearGradient id="paint0_linear_17_2" x1="389.367" y1="44.5605" x2="373.725" y2="100.037" gradientUnits="userSpaceOnUse">
<stop stop-color="#FBDC7C"/>
<stop offset="0.36" stop-color="#FBDC7C"/>
<stop offset="0.5" stop-color="#F57E28"/>
<stop offset="1" stop-color="#F57E28"/>
</linearGradient>
</defs>
</svg>
